<svg id="visual" viewBox="0 0 900 600" width="900" height="600" xmlns="http://www.w3.org/2000/svg" xmlns:xlink="http://www.w3.org/1999/xlink" version="1.1"><g stroke-width="1" stroke-linejoin="bevel"><path d="M406 297L424 363L523 337Z" fill="#7c29a6" stroke="#7c29a6"></path><path d="M424 363L464 413L523 337Z" fill="#152b6c" stroke="#152b6c"></path><path d="M519 198L388 221L406 297Z" fill="#503093" stroke="#503093"></path><path d="M523 337L519 198L406 297Z" fill="#001d3f" stroke="#001d3f"></path><path d="M464 413L569 401L523 337Z" fill="#7c29a6" stroke="#7c29a6"></path><path d="M523 337L584 215L519 198Z" fill="#03275d" stroke="#03275d"></path><path d="M569 401L615 309L523 337Z" fill="#001122" stroke="#001122"></path><path d="M615 309L584 215L523 337Z" fill="#00234f" stroke="#00234f"></path><path d="M287 238L283 323L406 297Z" fill="#503093" stroke="#503093"></path><path d="M406 297L283 323L424 363Z" fill="#3b3087" stroke="#3b3087"></path><path d="M424 363L373 516L464 413Z" fill="#00234f" stroke="#00234f"></path><path d="M519 198L437 126L388 221Z" fill="#7c29a6" stroke="#7c29a6"></path><path d="M388 221L287 238L406 297Z" fill="#001830" stroke="#001830"></path><path d="M466 80L437 126L519 198Z" fill="#001830" stroke="#001830"></path><path d="M335 124L287 238L388 221Z" fill="#03275d" stroke="#03275d"></path><path d="M283 323L287 409L424 363Z" fill="#652e9d" stroke="#652e9d"></path><path d="M464 413L581 490L569 401Z" fill="#652e9d" stroke="#652e9d"></path><path d="M726 413L700 311L615 309Z" fill="#152b6c" stroke="#152b6c"></path><path d="M461 534L581 490L464 413Z" fill="#282e7a" stroke="#282e7a"></path><path d="M687 175L571 136L584 215Z" fill="#001830" stroke="#001830"></path><path d="M584 215L571 136L519 198Z" fill="#503093" stroke="#503093"></path><path d="M373 516L461 534L464 413Z" fill="#00234f" stroke="#00234f"></path><path d="M287 409L373 516L424 363Z" fill="#00234f" stroke="#00234f"></path><path d="M437 126L335 124L388 221Z" fill="#7c29a6" stroke="#7c29a6"></path><path d="M726 413L615 309L569 401Z" fill="#03275d" stroke="#03275d"></path><path d="M615 309L687 175L584 215Z" fill="#652e9d" stroke="#652e9d"></path><path d="M571 136L466 80L519 198Z" fill="#00234f" stroke="#00234f"></path><path d="M437 126L410 0L335 124Z" fill="#3b3087" stroke="#3b3087"></path><path d="M335 124L237 220L287 238Z" fill="#001830" stroke="#001830"></path><path d="M287 238L209 293L283 323Z" fill="#03275d" stroke="#03275d"></path><path d="M283 323L191 402L287 409Z" fill="#001830" stroke="#001830"></path><path d="M237 220L209 293L287 238Z" fill="#652e9d" stroke="#652e9d"></path><path d="M700 311L687 175L615 309Z" fill="#001830" stroke="#001830"></path><path d="M565 0L473 0L466 80Z" fill="#652e9d" stroke="#652e9d"></path><path d="M684 507L726 413L569 401Z" fill="#00234f" stroke="#00234f"></path><path d="M700 311L797 283L687 175Z" fill="#503093" stroke="#503093"></path><path d="M287 409L274 524L373 516Z" fill="#001122" stroke="#001122"></path><path d="M360 600L462 600L461 534Z" fill="#282e7a" stroke="#282e7a"></path><path d="M191 402L274 524L287 409Z" fill="#001d3f" stroke="#001d3f"></path><path d="M360 600L461 534L373 516Z" fill="#503093" stroke="#503093"></path><path d="M461 534L462 600L581 490Z" fill="#152b6c" stroke="#152b6c"></path><path d="M581 490L684 507L569 401Z" fill="#00234f" stroke="#00234f"></path><path d="M209 293L191 402L283 323Z" fill="#282e7a" stroke="#282e7a"></path><path d="M623 600L684 507L581 490Z" fill="#7c29a6" stroke="#7c29a6"></path><path d="M274 524L360 600L373 516Z" fill="#3b3087" stroke="#3b3087"></path><path d="M565 0L466 80L571 136Z" fill="#3b3087" stroke="#3b3087"></path><path d="M466 80L410 0L437 126Z" fill="#001122" stroke="#001122"></path><path d="M473 0L410 0L466 80Z" fill="#001122" stroke="#001122"></path><path d="M335 124L170 132L237 220Z" fill="#001d3f" stroke="#001d3f"></path><path d="M462 600L623 600L581 490Z" fill="#282e7a" stroke="#282e7a"></path><path d="M836 537L768 434L684 507Z" fill="#503093" stroke="#503093"></path><path d="M684 507L768 434L726 413Z" fill="#001830" stroke="#001830"></path><path d="M726 413L797 283L700 311Z" fill="#00234f" stroke="#00234f"></path><path d="M816 162L678 65L687 175Z" fill="#282e7a" stroke="#282e7a"></path><path d="M687 175L678 65L571 136Z" fill="#152b6c" stroke="#152b6c"></path><path d="M678 65L565 0L571 136Z" fill="#652e9d" stroke="#652e9d"></path><path d="M768 434L797 283L726 413Z" fill="#001d3f" stroke="#001d3f"></path><path d="M174 539L277 600L274 524Z" fill="#152b6c" stroke="#152b6c"></path><path d="M274 524L277 600L360 600Z" fill="#3b3087" stroke="#3b3087"></path><path d="M237 220L117 238L209 293Z" fill="#001830" stroke="#001830"></path><path d="M209 293L107 368L191 402Z" fill="#3b3087" stroke="#3b3087"></path><path d="M274 0L170 132L335 124Z" fill="#7c29a6" stroke="#7c29a6"></path><path d="M170 132L117 238L237 220Z" fill="#001122" stroke="#001122"></path><path d="M191 402L174 539L274 524Z" fill="#001830" stroke="#001830"></path><path d="M117 238L107 368L209 293Z" fill="#282e7a" stroke="#282e7a"></path><path d="M60 479L174 539L191 402Z" fill="#503093" stroke="#503093"></path><path d="M410 0L274 0L335 124Z" fill="#7c29a6" stroke="#7c29a6"></path><path d="M760 0L676 0L678 65Z" fill="#001d3f" stroke="#001d3f"></path><path d="M678 65L676 0L565 0Z" fill="#3b3087" stroke="#3b3087"></path><path d="M797 283L816 162L687 175Z" fill="#001d3f" stroke="#001d3f"></path><path d="M623 600L729 600L684 507Z" fill="#152b6c" stroke="#152b6c"></path><path d="M0 274L64 316L117 238Z" fill="#001830" stroke="#001830"></path><path d="M117 238L64 316L107 368Z" fill="#503093" stroke="#503093"></path><path d="M107 368L60 479L191 402Z" fill="#001d3f" stroke="#001d3f"></path><path d="M174 539L179 600L277 600Z" fill="#03275d" stroke="#03275d"></path><path d="M82 600L179 600L174 539Z" fill="#3b3087" stroke="#3b3087"></path><path d="M729 600L778 600L684 507Z" fill="#152b6c" stroke="#152b6c"></path><path d="M900 366L900 293L797 283Z" fill="#03275d" stroke="#03275d"></path><path d="M797 283L900 228L816 162Z" fill="#03275d" stroke="#03275d"></path><path d="M274 0L183 0L170 132Z" fill="#001830" stroke="#001830"></path><path d="M170 132L68 98L117 238Z" fill="#503093" stroke="#503093"></path><path d="M778 600L836 537L684 507Z" fill="#001d3f" stroke="#001d3f"></path><path d="M839 72L760 0L678 65Z" fill="#282e7a" stroke="#282e7a"></path><path d="M900 366L797 283L768 434Z" fill="#652e9d" stroke="#652e9d"></path><path d="M816 162L839 72L678 65Z" fill="#001d3f" stroke="#001d3f"></path><path d="M0 386L60 479L107 368Z" fill="#3b3087" stroke="#3b3087"></path><path d="M900 515L900 366L768 434Z" fill="#001d3f" stroke="#001d3f"></path><path d="M900 293L900 228L797 283Z" fill="#001830" stroke="#001830"></path><path d="M900 89L839 72L816 162Z" fill="#503093" stroke="#503093"></path><path d="M137 0L68 98L170 132Z" fill="#03275d" stroke="#03275d"></path><path d="M64 316L0 386L107 368Z" fill="#001122" stroke="#001122"></path><path d="M183 0L137 0L170 132Z" fill="#001122" stroke="#001122"></path><path d="M0 178L0 274L117 238Z" fill="#03275d" stroke="#03275d"></path><path d="M0 274L0 386L64 316Z" fill="#282e7a" stroke="#282e7a"></path><path d="M0 515L82 600L60 479Z" fill="#001d3f" stroke="#001d3f"></path><path d="M60 479L82 600L174 539Z" fill="#3b3087" stroke="#3b3087"></path><path d="M900 600L900 515L836 537Z" fill="#03275d" stroke="#03275d"></path><path d="M836 537L900 515L768 434Z" fill="#00234f" stroke="#00234f"></path><path d="M68 98L0 178L117 238Z" fill="#282e7a" stroke="#282e7a"></path><path d="M0 128L0 178L68 98Z" fill="#03275d" stroke="#03275d"></path><path d="M900 228L900 89L816 162Z" fill="#001d3f" stroke="#001d3f"></path><path d="M839 72L900 0L760 0Z" fill="#03275d" stroke="#03275d"></path><path d="M0 0L0 128L68 98Z" fill="#152b6c" stroke="#152b6c"></path><path d="M0 386L0 515L60 479Z" fill="#652e9d" stroke="#652e9d"></path><path d="M778 600L900 600L836 537Z" fill="#00234f" stroke="#00234f"></path><path d="M900 89L900 0L839 72Z" fill="#503093" stroke="#503093"></path><path d="M0 515L0 600L82 600Z" fill="#652e9d" stroke="#652e9d"></path><path d="M137 0L0 0L68 98Z" fill="#503093" stroke="#503093"></path></g></svg>