<svg id="visual" viewBox="0 0 900 600" width="900" height="600" xmlns="http://www.w3.org/2000/svg" xmlns:xlink="http://www.w3.org/1999/xlink" version="1.1"><g stroke-width="1" stroke-linejoin="bevel"><path d="M490 290L573 278L491 199Z" fill="#21473f" stroke="#21473f"></path><path d="M573 278L622 233L491 199Z" fill="#2c5c51" stroke="#2c5c51"></path><path d="M607 138L461 134L491 199Z" fill="#254e45" stroke="#254e45"></path><path d="M491 199L389 205L490 290Z" fill="#1d4139" stroke="#1d4139"></path><path d="M622 233L607 138L491 199Z" fill="#132e28" stroke="#132e28"></path><path d="M490 290L520 384L573 278Z" fill="#21473f" stroke="#21473f"></path><path d="M682 322L676 223L622 233Z" fill="#28554b" stroke="#28554b"></path><path d="M461 134L389 205L491 199Z" fill="#102822" stroke="#102822"></path><path d="M490 290L435 419L520 384Z" fill="#102822" stroke="#102822"></path><path d="M682 322L622 233L573 278Z" fill="#081c18" stroke="#081c18"></path><path d="M622 233L676 223L607 138Z" fill="#132e28" stroke="#132e28"></path><path d="M389 205L367 312L490 290Z" fill="#0c221d" stroke="#0c221d"></path><path d="M623 432L682 322L573 278Z" fill="#081c18" stroke="#081c18"></path><path d="M485 0L412 109L461 134Z" fill="#132e28" stroke="#132e28"></path><path d="M461 134L412 109L389 205Z" fill="#132e28" stroke="#132e28"></path><path d="M367 312L435 419L490 290Z" fill="#21473f" stroke="#21473f"></path><path d="M623 432L696 363L682 322Z" fill="#1d4139" stroke="#1d4139"></path><path d="M623 432L573 278L520 384Z" fill="#081c18" stroke="#081c18"></path><path d="M682 322L761 316L676 223Z" fill="#28554b" stroke="#28554b"></path><path d="M610 532L623 432L520 384Z" fill="#21473f" stroke="#21473f"></path><path d="M330 61L306 219L389 205Z" fill="#0c221d" stroke="#0c221d"></path><path d="M389 205L306 219L367 312Z" fill="#102822" stroke="#102822"></path><path d="M367 312L297 378L435 419Z" fill="#132e28" stroke="#132e28"></path><path d="M306 219L316 324L367 312Z" fill="#0c221d" stroke="#0c221d"></path><path d="M676 223L662 60L607 138Z" fill="#0c221d" stroke="#0c221d"></path><path d="M572 0L485 0L461 134Z" fill="#102822" stroke="#102822"></path><path d="M782 209L662 60L676 223Z" fill="#2c5c51" stroke="#2c5c51"></path><path d="M769 439L761 316L696 363Z" fill="#21473f" stroke="#21473f"></path><path d="M696 363L761 316L682 322Z" fill="#16342d" stroke="#16342d"></path><path d="M572 0L461 134L607 138Z" fill="#2c5c51" stroke="#2c5c51"></path><path d="M412 109L330 61L389 205Z" fill="#102822" stroke="#102822"></path><path d="M662 60L572 0L607 138Z" fill="#254e45" stroke="#254e45"></path><path d="M761 316L782 209L676 223Z" fill="#1a3a33" stroke="#1a3a33"></path><path d="M195 309L297 378L316 324Z" fill="#132e28" stroke="#132e28"></path><path d="M316 324L297 378L367 312Z" fill="#16342d" stroke="#16342d"></path><path d="M372 0L330 61L412 109Z" fill="#28554b" stroke="#28554b"></path><path d="M623 432L686 475L696 363Z" fill="#0c221d" stroke="#0c221d"></path><path d="M610 532L686 475L623 432Z" fill="#21473f" stroke="#21473f"></path><path d="M485 0L372 0L412 109Z" fill="#102822" stroke="#102822"></path><path d="M423 531L466 531L435 419Z" fill="#1a3a33" stroke="#1a3a33"></path><path d="M435 419L466 531L520 384Z" fill="#081c18" stroke="#081c18"></path><path d="M330 61L237 172L306 219Z" fill="#16342d" stroke="#16342d"></path><path d="M306 219L195 309L316 324Z" fill="#0c221d" stroke="#0c221d"></path><path d="M205 123L237 172L330 61Z" fill="#28554b" stroke="#28554b"></path><path d="M466 531L610 532L520 384Z" fill="#0c221d" stroke="#0c221d"></path><path d="M277 506L423 531L435 419Z" fill="#1d4139" stroke="#1d4139"></path><path d="M466 531L520 600L610 532Z" fill="#132e28" stroke="#132e28"></path><path d="M806 481L769 439L686 475Z" fill="#102822" stroke="#102822"></path><path d="M686 475L769 439L696 363Z" fill="#081c18" stroke="#081c18"></path><path d="M900 209L821 122L782 209Z" fill="#2c5c51" stroke="#2c5c51"></path><path d="M821 122L727 0L662 60Z" fill="#28554b" stroke="#28554b"></path><path d="M662 60L727 0L572 0Z" fill="#102822" stroke="#102822"></path><path d="M782 209L821 122L662 60Z" fill="#132e28" stroke="#132e28"></path><path d="M900 278L782 209L761 316Z" fill="#21473f" stroke="#21473f"></path><path d="M372 0L305 0L330 61Z" fill="#2c5c51" stroke="#2c5c51"></path><path d="M237 172L195 309L306 219Z" fill="#1d4139" stroke="#1d4139"></path><path d="M297 378L277 506L435 419Z" fill="#132e28" stroke="#132e28"></path><path d="M201 0L205 123L330 61Z" fill="#1a3a33" stroke="#1a3a33"></path><path d="M95 191L128 327L195 309Z" fill="#254e45" stroke="#254e45"></path><path d="M398 600L520 600L466 531Z" fill="#254e45" stroke="#254e45"></path><path d="M610 532L711 600L686 475Z" fill="#28554b" stroke="#28554b"></path><path d="M161 409L277 506L297 378Z" fill="#1a3a33" stroke="#1a3a33"></path><path d="M423 531L398 600L466 531Z" fill="#102822" stroke="#102822"></path><path d="M520 600L598 600L610 532Z" fill="#132e28" stroke="#132e28"></path><path d="M711 600L806 481L686 475Z" fill="#2c5c51" stroke="#2c5c51"></path><path d="M900 371L900 278L761 316Z" fill="#21473f" stroke="#21473f"></path><path d="M900 371L761 316L769 439Z" fill="#254e45" stroke="#254e45"></path><path d="M900 278L900 209L782 209Z" fill="#132e28" stroke="#132e28"></path><path d="M821 122L835 0L727 0Z" fill="#132e28" stroke="#132e28"></path><path d="M328 600L398 600L423 531Z" fill="#102822" stroke="#102822"></path><path d="M900 95L835 0L821 122Z" fill="#102822" stroke="#102822"></path><path d="M806 481L900 371L769 439Z" fill="#1d4139" stroke="#1d4139"></path><path d="M128 327L161 409L195 309Z" fill="#081c18" stroke="#081c18"></path><path d="M195 309L161 409L297 378Z" fill="#132e28" stroke="#132e28"></path><path d="M598 600L711 600L610 532Z" fill="#1d4139" stroke="#1d4139"></path><path d="M806 481L900 509L900 371Z" fill="#1d4139" stroke="#1d4139"></path><path d="M900 209L900 95L821 122Z" fill="#21473f" stroke="#21473f"></path><path d="M95 191L195 309L237 172Z" fill="#16342d" stroke="#16342d"></path><path d="M186 600L328 600L277 506Z" fill="#1a3a33" stroke="#1a3a33"></path><path d="M277 506L328 600L423 531Z" fill="#1d4139" stroke="#1d4139"></path><path d="M305 0L201 0L330 61Z" fill="#0c221d" stroke="#0c221d"></path><path d="M205 123L95 191L237 172Z" fill="#081c18" stroke="#081c18"></path><path d="M161 409L210 514L277 506Z" fill="#254e45" stroke="#254e45"></path><path d="M201 0L116 125L205 123Z" fill="#0c221d" stroke="#0c221d"></path><path d="M116 125L95 191L205 123Z" fill="#1d4139" stroke="#1d4139"></path><path d="M900 95L900 0L835 0Z" fill="#21473f" stroke="#21473f"></path><path d="M711 600L800 600L806 481Z" fill="#28554b" stroke="#28554b"></path><path d="M800 600L900 509L806 481Z" fill="#2c5c51" stroke="#2c5c51"></path><path d="M128 327L78 433L161 409Z" fill="#2c5c51" stroke="#2c5c51"></path><path d="M161 409L90 531L210 514Z" fill="#28554b" stroke="#28554b"></path><path d="M210 514L186 600L277 506Z" fill="#1a3a33" stroke="#1a3a33"></path><path d="M0 418L78 433L128 327Z" fill="#21473f" stroke="#21473f"></path><path d="M90 531L186 600L210 514Z" fill="#0c221d" stroke="#0c221d"></path><path d="M116 125L0 163L95 191Z" fill="#28554b" stroke="#28554b"></path><path d="M95 191L0 278L128 327Z" fill="#28554b" stroke="#28554b"></path><path d="M201 0L78 0L116 125Z" fill="#132e28" stroke="#132e28"></path><path d="M800 600L900 600L900 509Z" fill="#132e28" stroke="#132e28"></path><path d="M78 433L90 531L161 409Z" fill="#081c18" stroke="#081c18"></path><path d="M0 163L0 278L95 191Z" fill="#081c18" stroke="#081c18"></path><path d="M78 433L0 505L90 531Z" fill="#1d4139" stroke="#1d4139"></path><path d="M0 105L0 163L116 125Z" fill="#16342d" stroke="#16342d"></path><path d="M78 0L0 105L116 125Z" fill="#21473f" stroke="#21473f"></path><path d="M0 278L0 418L128 327Z" fill="#28554b" stroke="#28554b"></path><path d="M0 600L76 600L90 531Z" fill="#254e45" stroke="#254e45"></path><path d="M90 531L76 600L186 600Z" fill="#254e45" stroke="#254e45"></path><path d="M78 0L0 0L0 105Z" fill="#254e45" stroke="#254e45"></path><path d="M0 418L0 505L78 433Z" fill="#28554b" stroke="#28554b"></path><path d="M0 505L0 600L90 531Z" fill="#254e45" stroke="#254e45"></path></g></svg>